<svg width="253" height="45" viewBox="0 0 253 45" fill="none" xmlns="http://www.w3.org/2000/svg">
<path d="M10.9043 7.8301C11.1671 7.46225 11.5349 7.19949 11.9554 7.09439C12.6911 6.88418 13.4268 6.80536 14.1888 6.83163C14.9508 6.83163 15.7128 6.88418 16.4747 6.98929C17.1842 7.09439 17.8411 7.22577 18.4717 7.35714L17.736 1.05102C16.7112 0.735714 15.7128 0.472959 14.688 0.315306C13.4268 0.105102 12.1393 0 10.8781 0C7.88265 0 5.70179 0.472959 4.28291 1.41888C2.86403 2.3648 2.18087 3.70485 2.15459 5.46531V5.59668C2.15459 6.77908 2.49617 7.69873 3.17934 8.40816C3.8625 9.1176 4.70332 9.64311 5.64924 9.93214V10.1686L0 10.0898V16.8952H3.02168V33.0809H11.64V16.9214H17.7622L18.4717 10.1161H10.9043C10.8518 10.0372 10.8255 9.95842 10.773 9.87959C10.6679 9.61684 10.6153 9.32781 10.6153 9.0125V8.98623C10.6153 8.56582 10.6941 8.17168 10.9043 7.8301Z" fill="white"/>
<path d="M39.7547 11.3247C38.7563 10.3263 37.5476 9.56429 36.2075 9.14388C34.7098 8.61837 32.8443 8.38189 30.6108 8.38189C29.3496 8.38189 28.1147 8.46072 26.8797 8.64464C25.7762 8.8023 24.6989 9.03878 23.6216 9.35408C22.7019 9.64311 21.7823 9.95842 20.9152 10.3526L20.2057 16.9214C21.5458 16.4222 22.9384 16.0018 24.4098 15.6339C25.9075 15.2661 27.4315 15.0559 28.9818 15.0821C30.7159 15.0821 31.9509 15.3449 32.6866 15.8704C33.2647 16.2908 33.6325 16.9214 33.7114 17.6309L28.2723 18.3403C25.0404 18.7607 22.6756 19.5227 21.2042 20.6526C19.7328 21.7824 18.9971 23.5691 18.9971 25.9865V26.5908C18.9971 28.8505 19.6014 30.611 20.8364 31.8459C22.0713 33.0809 23.8843 33.6852 26.3017 33.6852C27.957 33.6852 29.2708 33.4487 30.2693 32.9495C31.2152 32.5028 32.0034 31.8196 32.5552 30.9525C33.107 30.0592 33.5012 29.0607 33.7114 28.036H33.9478L33.7376 33.1071H42.2246V18.9446C42.2509 17.4995 42.0407 16.0543 41.6466 14.688C41.305 13.4268 40.6481 12.2969 39.7547 11.3247ZM33.0019 26.2492C32.6078 26.6171 32.1348 26.8798 31.6356 27.0638C31.005 27.274 30.3481 27.3791 29.6912 27.3791C28.7978 27.3791 28.1409 27.1952 27.7731 26.8536C27.379 26.4857 27.1688 25.9865 27.195 25.461V25.3559C27.1688 24.8304 27.3527 24.3048 27.7468 23.937C28.1147 23.6217 28.7716 23.3852 29.7175 23.2538L33.8165 22.6495V25.1719C33.6063 25.5923 33.3172 25.9339 33.0019 26.2492Z" fill="white"/>
<path d="M81.2174 9.45918C80.1401 8.80229 78.7475 8.46071 77.0396 8.46071C75.4631 8.46071 74.1755 8.72347 73.1508 9.24898C72.2049 9.72194 71.3903 10.4577 70.8123 11.351C70.2342 12.2707 69.8401 13.2954 69.6036 14.3727H69.3671C69.0256 12.586 68.3687 11.1934 67.3702 10.1949C66.2403 9.03877 64.5587 8.46071 62.3253 8.46071C60.775 8.46071 59.5138 8.72347 58.5154 9.24898C57.5694 9.72194 56.7549 10.4577 56.2031 11.3773C55.6513 12.2969 55.2309 13.3217 55.0207 14.399H54.7842L54.9944 9.06505H46.4023V33.1597H55.047V17.7097C55.2046 17.3418 55.3886 17.0265 55.6513 16.7375C56.3082 15.9755 57.2541 15.5551 58.2526 15.5814C58.8569 15.5551 59.435 15.6865 59.9342 16.0018C60.3546 16.2908 60.6437 16.7112 60.8013 17.1842C60.9852 17.7885 61.0641 18.3929 61.0378 19.0235V33.1071H69.6824V17.7097C69.8401 17.3418 70.024 17.0265 70.2868 16.7112C70.9437 15.9492 71.8896 15.5288 72.888 15.5551C73.4924 15.5288 74.0705 15.6602 74.5697 15.9755C74.9901 16.2645 75.2791 16.6849 75.4368 17.1579C75.6207 17.7622 75.6995 18.3666 75.6733 18.9972V33.0809H84.3179V17.5258C84.3179 15.4763 84.0551 13.7946 83.5296 12.4546C83.1618 11.2196 82.321 10.1686 81.2174 9.45918Z" fill="white"/>
<path d="M100.11 8.30306C96.0896 8.30306 93.068 9.30153 91.0185 11.2985C88.969 13.2954 87.918 16.0806 87.918 19.6541V22.702C87.918 26.1704 88.9427 28.9031 90.9922 30.8737C93.0417 32.8444 96.0634 33.8166 100.11 33.8166C104.156 33.8166 107.178 32.8444 109.227 30.8737C111.277 28.9031 112.275 26.1704 112.275 22.702V19.6541C112.275 16.0806 111.251 13.2954 109.201 11.2985C107.152 9.30153 104.13 8.30306 100.11 8.30306ZM103.631 23.0436C103.631 24.3311 103.342 25.3296 102.737 26.039C102.133 26.7485 101.266 27.0901 100.11 27.0901C98.98 27.0901 98.0866 26.7485 97.4823 26.039C96.8779 25.3559 96.5626 24.3574 96.5889 23.0436V19.3125C96.5889 17.9199 96.9042 16.8689 97.4823 16.1594C98.0866 15.45 98.9537 15.0821 100.11 15.0821C101.24 15.0821 102.133 15.45 102.737 16.1594C103.342 16.8689 103.631 17.9199 103.631 19.3125V23.0436Z" fill="white"/>
<path d="M132.323 19.838C130.747 19.1811 129.117 18.6819 127.436 18.314C126.201 18.025 125.281 17.7622 124.651 17.5783C124.178 17.4732 123.757 17.263 123.363 16.974C123.153 16.79 123.022 16.5273 123.022 16.2383V16.212C123.022 15.9755 123.127 15.7127 123.284 15.5551C123.573 15.3186 123.915 15.1872 124.283 15.161C124.966 15.0559 125.649 15.0033 126.332 15.0296C127.856 15.0296 129.354 15.1872 130.825 15.5025C132.192 15.7916 133.505 16.1857 134.793 16.6849L134.084 10.0372C132.849 9.51173 131.561 9.1176 130.221 8.88112C128.566 8.53953 126.858 8.38188 125.176 8.40816C121.76 8.40816 119.159 9.01249 117.372 10.2212C115.586 11.4298 114.692 13.2691 114.692 15.7653V15.9492C114.666 17.1316 114.929 18.2877 115.454 19.3125C115.953 20.2584 116.794 21.0467 117.977 21.7298C119.159 22.3867 120.736 22.9648 122.733 23.4377C123.941 23.7268 124.913 23.937 125.597 24.1209C126.122 24.226 126.595 24.4362 127.042 24.7252C127.304 24.9355 127.462 25.2508 127.462 25.5923V25.6449C127.462 26.1178 127.173 26.512 126.753 26.6696C126.28 26.8798 125.386 26.9849 124.099 26.9849C122.417 26.9849 120.762 26.801 119.133 26.3806C117.688 26.0127 116.269 25.5661 114.902 25.0406L115.612 32.1612C116.926 32.6342 118.292 33.002 119.658 33.2648C121.366 33.5801 123.127 33.7377 124.861 33.7377C128.645 33.7377 131.43 33.0809 133.243 31.7934C135.056 30.4796 135.975 28.4826 135.975 25.7763V25.6449C135.975 24.1209 135.686 22.9385 135.108 22.0451C134.53 21.1518 133.584 20.3898 132.323 19.838Z" fill="white"/>
<path d="M150.454 8.30306C146.433 8.30306 143.412 9.30153 141.362 11.2985C139.313 13.2954 138.262 16.0806 138.262 19.6541V22.702C138.262 26.1704 139.286 28.9031 141.336 30.8737C143.385 32.8444 146.407 33.8166 150.454 33.8166C154.5 33.8166 157.548 32.8444 159.571 30.8737C161.621 28.9031 162.619 26.1704 162.619 22.702V19.6541C162.619 16.0806 161.594 13.2954 159.545 11.2985C157.522 9.30153 154.474 8.30306 150.454 8.30306ZM153.974 23.0436C153.974 24.3311 153.685 25.3296 153.081 26.039C152.477 26.7485 151.61 27.0901 150.454 27.0901C149.324 27.0901 148.43 26.7485 147.826 26.039C147.222 25.3559 146.933 24.3574 146.933 23.0436V19.3125C146.933 17.9199 147.222 16.8689 147.826 16.1594C148.43 15.45 149.297 15.0821 150.454 15.0821C151.61 15.0821 152.477 15.45 153.081 16.1594C153.685 16.8689 153.974 17.9199 153.974 19.3125V23.0436Z" fill="white"/>
<path d="M185.426 21.9926C184.848 21.0992 183.928 20.3898 182.667 19.838C181.091 19.1811 179.462 18.6819 177.78 18.314C176.545 18.025 175.625 17.7622 174.995 17.5783C174.522 17.4732 174.101 17.263 173.707 16.974C173.497 16.79 173.366 16.5273 173.366 16.2383V16.212C173.366 15.9755 173.471 15.7127 173.628 15.5551C173.917 15.3186 174.259 15.1872 174.627 15.161C175.31 15.0559 175.993 15.0033 176.676 15.0296C178.2 15.0296 179.698 15.1872 181.169 15.5025C182.536 15.7916 183.85 16.1857 185.137 16.6849L184.428 10.0372C183.193 9.51173 181.905 9.1176 180.591 8.88112C178.936 8.53953 177.228 8.38188 175.546 8.40816C172.131 8.40816 169.529 9.01249 167.743 10.2212C165.956 11.4298 165.063 13.2691 165.063 15.7653V15.9492C165.036 17.1054 165.273 18.2877 165.798 19.3125C166.297 20.2584 167.138 21.0467 168.321 21.7298C169.503 22.3867 171.08 22.9648 173.077 23.4377C174.285 23.7268 175.257 23.937 175.941 24.1209C176.466 24.226 176.939 24.4362 177.386 24.7252C177.648 24.9355 177.806 25.2508 177.806 25.5923V25.6449C177.806 26.1178 177.517 26.512 177.07 26.6696C176.597 26.8798 175.704 26.9849 174.417 26.9849C172.735 26.9849 171.08 26.801 169.451 26.3806C168.005 26.0127 166.587 25.5661 165.22 25.0406L165.93 32.1612C167.243 32.6342 168.61 33.002 170.002 33.2648C171.71 33.5801 173.471 33.7377 175.205 33.7377C178.989 33.7377 181.774 33.0809 183.587 31.7934C185.4 30.4796 186.293 28.4826 186.293 25.7763V25.6449C186.319 24.0946 186.03 22.886 185.426 21.9926Z" fill="white"/>
<path d="M205.974 16.0543L204.371 22.7809H207.866L206.289 16.0543H205.974Z" fill="white"/>
<path d="M223.5 16.9214H221.214V26.2492H223.5C224.446 26.2492 225.155 25.9865 225.628 25.4872C226.101 24.988 226.338 24.2523 226.338 23.2801V19.8906C226.338 18.9446 226.101 18.2089 225.628 17.7097C225.181 17.1579 224.472 16.9214 223.5 16.9214Z" fill="white"/>
<path d="M250.774 5.91199H192.521C191.391 5.91199 190.445 6.83164 190.445 7.98776V35.7347C190.445 36.8645 191.365 37.8105 192.521 37.8105H237.794L238.871 39.6497L241.341 43.9327C241.656 44.4844 242.366 44.6684 242.918 44.3531C243.075 44.248 243.233 44.1166 243.338 43.9327L245.808 39.6497L246.885 37.8105H250.8C251.93 37.8105 252.876 36.8908 252.876 35.7347V7.98776C252.823 6.85791 251.904 5.93827 250.774 5.91199ZM209.653 30.3745L208.759 26.5645H203.478L202.558 30.3745H197.54L202.427 12.7962H209.837L214.671 30.3745H209.653ZM231.356 23.2801C231.356 25.5661 230.726 27.3265 229.464 28.5615C228.203 29.7964 226.285 30.4008 223.684 30.4008H216.3V12.8225H223.684C226.259 12.8225 228.177 13.4268 229.438 14.6355C230.699 15.8441 231.33 17.6046 231.33 19.8906V23.2801H231.356ZM246.544 25.3033C246.544 27.1163 245.965 28.5089 244.783 29.4023C243.601 30.3219 241.788 30.7686 239.344 30.7686C237.899 30.7686 236.48 30.5847 235.087 30.2168C234.562 30.0855 234.036 29.9015 233.511 29.7176L233.09 25.1982C233.931 25.5398 234.798 25.8551 235.692 26.0916C236.716 26.3806 237.768 26.512 238.845 26.512C239.817 26.512 240.5 26.4069 240.894 26.1967C241.262 26.0128 241.499 25.6449 241.472 25.2245V25.1719C241.472 24.8829 241.367 24.6202 241.183 24.4362C240.921 24.1735 240.579 23.9895 240.237 23.8844C239.791 23.7005 239.213 23.4903 238.477 23.2538C237.426 22.9385 236.401 22.5181 235.429 21.9926C234.667 21.5985 234.036 21.0204 233.59 20.2847C233.143 19.4964 232.907 18.5768 232.959 17.6571V17.4469C232.959 15.7916 233.511 14.5566 234.641 13.6895C235.771 12.8225 237.426 12.402 239.607 12.402C240.71 12.3758 241.814 12.4809 242.918 12.7174C243.758 12.9013 244.547 13.164 245.335 13.4793L245.755 17.6834C244.967 17.3418 244.152 17.0528 243.312 16.8689C242.392 16.6587 241.446 16.5536 240.474 16.5536C239.975 16.5273 239.449 16.5799 238.95 16.685C238.661 16.7375 238.398 16.8689 238.214 17.0791C238.083 17.263 238.004 17.4732 238.004 17.7097V17.7622C238.004 18.025 238.083 18.2615 238.24 18.4454C238.503 18.7082 238.819 18.9184 239.16 19.0498C239.791 19.3125 240.421 19.549 241.078 19.7592C242.103 20.0745 243.101 20.4686 244.074 20.9416C244.809 21.2832 245.44 21.835 245.913 22.5181C246.333 23.175 246.517 24.0421 246.517 25.1457V25.3033H246.544Z" fill="white"/>
</svg>
